<svg xmlns="http://www.w3.org/2000/svg" width="769.468799937855" height="498.15626664595163" viewBox="0 0 769.468799937855 498.15626664595163">

  <defs>
    <style>
      text { font-family: system-ui, -apple-system, "Segoe UI", sans-serif; font-size: 12px; fill: #111827; }
      .shape-rect { fill: #ffffff; stroke: #9ca3af; stroke-width: 1; }
      .shape-entity { fill: #ffffff; stroke: #111827; stroke-width: 2; }
      .shape-circle { fill: #ffffff; stroke: #9ca3af; stroke-width: 1; }
      .shape-pill { fill: #ffffff; stroke: #9ca3af; stroke-width: 1; }
      .shape-db { fill: #ffffff; stroke: #9ca3af; stroke-width: 1; }
      .conn { stroke: #111827; stroke-width: 2; fill: none; }
    </style>
    <marker id="arrow-end" markerWidth="10" markerHeight="7" refX="10" refY="3.5"
            orient="auto" markerUnits="strokeWidth">
      <polygon points="0 0, 10 3.5, 0 7" fill="#111827"/>
    </marker>
    <marker id="arrow-start" markerWidth="10" markerHeight="7" refX="0" refY="3.5"
            orient="auto" markerUnits="strokeWidth">
      <polygon points="10 0, 0 3.5, 10 7" fill="#111827"/>
    </marker>
  </defs>
        
<rect class="shape-rect" x="416.59376664595163" y="61.999997225674704" width="119.99994451349431" height="39.99998612837358" rx="4" ry="4" />
<text x="476.59373890269876" y="85.9999902898615" text-anchor="middle">Login</text>
<rect class="shape-rect" x="196.15625554865053" y="60.68749167702414" width="119.99999999999999" height="40.000013871626415" rx="4" ry="4" />
<text x="256.1562555486505" y="84.68749861283735" text-anchor="middle">Registro</text>
<rect class="shape-rect" x="290.9218805486505" y="163.62498890269885" width="119.99999999999999" height="40" rx="4" ry="4" />
<text x="350.9218805486505" y="187.62498890269885" text-anchor="middle">Inicio</text>
<rect class="shape-rect" x="538.2030417702415" y="163.64060835404828" width="158.57821377840907" height="40.000027743252836" rx="4" ry="4" />
<text x="617.492148659446" y="187.6406222256747" text-anchor="middle">Panel de Administrador</text>
<rect class="shape-rect" x="180.0156749378551" y="258.1718860973011" width="119.99994451349431" height="40" rx="4" ry="4" />
<text x="240.01564719460225" y="282.1718860973011" text-anchor="middle">Películas</text>
<rect class="shape-rect" x="395.4687222567471" y="262.734375" width="119.99994451349431" height="40" rx="4" ry="4" />
<text x="455.46869451349426" y="286.734375" text-anchor="middle">Series</text>
<rect class="shape-rect" x="40" y="355.437538840554" width="139.26560835404828" height="39.99994451349431" rx="4" ry="4" />
<text x="109.63280417702414" y="379.4375110973011" text-anchor="middle">Formulario Películas</text>
<rect class="shape-rect" x="517.2655417702415" y="361.7968472567471" width="123.68763316761363" height="40" rx="4" ry="4" />
<text x="579.1093583540483" y="385.7968472567471" text-anchor="middle">Formulario Series</text>
<rect class="shape-rect" x="273.64060835404825" y="418.15626664595163" width="150.3125" height="40" rx="4" ry="4" />
<text x="348.79685835404825" y="442.15626664595163" text-anchor="middle">Formulario  Rellenado</text>
<text x="331.82814164595163" y="349.437538840554">Añade</text>
<text x="304.5468694513494" y="364.89064164595163">Películas/Series</text>
<text x="555.4531305486505" y="130.3437444513494">Bajo usuario de administrador</text>
<text x="282.73440274325276" y="132.1562666459517">Bajo usuario ordinario</text>
<text x="294.57810835404825" y="246.7031360973011">Menú de selección</text>
<text x="177.26565274325284" y="54">En caso de no tener usuario</text>
<path class="conn" d="M 316.1562555486505 81.04474049122953 L 416.59376664595175 81.6427485766535" marker-start="url(#arrow-start)" marker-end="url(#arrow-end)" />
<path class="conn" d="M 504.3185489931109 101.99998335404828 L 589.7673097249084 163.64060835404828" marker-end="url(#arrow-end)" />
<path class="conn" d="M 451.8612780933274 101.99998335404828 L 375.6543499350114 163.62498890269885" marker-end="url(#arrow-end)" />
<path class="conn" d="M 263.4762231933628 258.1718860973011 L 327.46130454989 203.62498890269885" marker-start="url(#arrow-start)" marker-end="url(#arrow-end)" />
<path class="conn" d="M 372.019138453609 203.62498890269885 L 434.37143660853576 262.734375" marker-start="url(#arrow-start)" marker-end="url(#arrow-end)" />
<path class="conn" d="M 213.20600236528495 298.1718860973011 L 136.44241181700366 355.437538840554" marker-end="url(#arrow-end)" />
<path class="conn" d="M 179.26560835404828 393.69812654962686 L 273.64060835404825 418.44717412398643" marker-end="url(#arrow-end)" />
<path class="conn" d="M 517.2655417702414 396.9305529630193 L 423.95310835404825 419.7648957326495" marker-end="url(#arrow-end)" />
<path class="conn" d="M 480.43085445638485 302.734375 L 554.1471984111577 361.7968472567471" marker-end="url(#arrow-end)" />
<path class="conn" d="M 362.523603670267 418.15626664595163 L 441.7419491972755 302.734375" marker-end="url(#arrow-end)" />
<path class="conn" d="M 335.1978794054294 418.15626664595163 L 253.61462614322105 298.1718860973011" marker-end="url(#arrow-end)" />
</svg>