<svg xmlns="http://www.w3.org/2000/svg" width="548.34375" height="394" viewBox="0 0 548.34375 394">

  <defs>
    <style>
      text { font-family: system-ui, -apple-system, "Segoe UI", sans-serif; font-size: 12px; fill: #111827; }
      .shape-rect { fill: #ffffff; stroke: #9ca3af; stroke-width: 1; }
      .shape-entity { fill: #ffffff; stroke: #111827; stroke-width: 2; }
      .shape-circle { fill: #ffffff; stroke: #9ca3af; stroke-width: 1; }
      .shape-pill { fill: #ffffff; stroke: #9ca3af; stroke-width: 1; }
      .shape-db { fill: #ffffff; stroke: #9ca3af; stroke-width: 1; }
      .conn { stroke: #111827; stroke-width: 2; fill: none; }
    </style>
    <marker id="arrow-end" markerWidth="10" markerHeight="7" refX="10" refY="3.5"
            orient="auto" markerUnits="strokeWidth">
      <polygon points="0 0, 10 3.5, 0 7" fill="#111827"/>
    </marker>
    <marker id="arrow-start" markerWidth="10" markerHeight="7" refX="0" refY="3.5"
            orient="auto" markerUnits="strokeWidth">
      <polygon points="10 0, 0 3.5, 10 7" fill="#111827"/>
    </marker>
  </defs>
        
<rect class="shape-entity" x="40" y="41" width="160" height="199" />
<line x1="40" y1="70" x2="200" y2="70" stroke="#e5e7eb" stroke-width="1"/>
<text x="120" y="60" text-anchor="middle">usuario</text>
<text x="87.65625" y="89.5">id</text>
<text x="87.65625" y="112.5">nombre</text>
<text x="87.65625" y="135.5">usuario</text>
<text x="87.65625" y="158.5">correo</text>
<text x="87.65625" y="181.5">contraseña</text>
<text x="87.65625" y="204.5">token</text>
<rect class="shape-entity" x="343" y="40" width="165.34375" height="314" />
<line x1="343" y1="69" x2="508.34375" y2="69" stroke="#e5e7eb" stroke-width="1"/>
<text x="425.671875" y="59" text-anchor="middle">contenido</text>
<text x="370" y="88.5">id</text>
<text x="370" y="111.5">usuario_id</text>
<text x="370" y="134.5">atributo</text>
<text x="370" y="157.5">titulo</text>
<text x="370" y="180.5">tipo</text>
<text x="370" y="203.5">estado</text>
<text x="370" y="226.5">puntuación</text>
<text x="370" y="249.5">comentario</text>
<text x="370" y="272.5">fecha_visualizacion</text>
<text x="370" y="295.5">nivel_prioridad</text>
<text x="370" y="318.5">imagen_url</text>
<path class="conn" d="M 172.328125 86.08612938140038 L 350 106.91387061859962" marker-end="url(#arrow-end)" />
</svg>